<?xml version="1.0" encoding="UTF-8"?>
<svg id="Layer_2" xmlns="http://www.w3.org/2000/svg" version="1.1" viewBox="0 0 166 167.1">
  <!-- Generator: Adobe Illustrator 29.8.1, SVG Export Plug-In . SVG Version: 2.1.1 Build 2)  -->
  <g id="Layer_1-2">
    <g id="_54bnfU">
      <g>
        <path d="M20.9,21c1.5-.2,2.4.5,3.7,1.2,19.8,10.3,38.7,23.5,58.6,33.7,18.9-10,36.9-21.7,55.6-32,2-1.1,4.2-2.7,6.5-2.8v88.9l-16.4,10v-55.1l-46.1,81.1v-35.3l32-53.9-32.1,17.5L22.7,39.7c-2.4-2.3-.5-12.4-1-16.1l-.8-1.8v-.7Z"/>
        <path d="M20.9,93.2c1.2-1,1.9-.1,2.9.4,4.3,2.2,8.2,5.4,12.7,7v18.6l-14.5-8.2-.3-15.3-.8-1.8s0-.7,0-.7Z"/>
        <polygon points="67.7 82.8 67.7 101.4 21.6 75.4 21.6 56.8 67.7 82.8"/>
      </g>
    </g>
  </g>
</svg>